<?xml version="1.0" encoding="UTF-8" standalone="no"?>
<!DOCTYPE svg PUBLIC "-//W3C//DTD SVG 1.1//EN"
 "http://www.w3.org/Graphics/SVG/1.1/DTD/svg11.dtd">
<!-- Generated by graphviz version 14.1.3 (20260303.0454)
 -->
<!-- Pages: 1 -->
<svg width="435pt" height="297pt"
 viewBox="0.00 0.00 435.00 297.00" xmlns="http://www.w3.org/2000/svg" xmlns:xlink="http://www.w3.org/1999/xlink">
<g id="graph0" class="graph" transform="scale(1 1) rotate(0) translate(4 293)">
<polygon fill="white" stroke="none" points="-4,4 -4,-293 431,-293 431,4 -4,4"/>
<g id="clust1" class="cluster">
<title>cluster_detail</title>
<path fill="#e8eaf6" stroke="#9fa8da" d="M20,-8C20,-8 407,-8 407,-8 413,-8 419,-14 419,-20 419,-20 419,-269 419,-269 419,-275 413,-281 407,-281 407,-281 20,-281 20,-281 14,-281 8,-275 8,-269 8,-269 8,-20 8,-20 8,-14 14,-8 20,-8"/>
</g>
<!-- IndexGenerateOptions -->
<g id="node1" class="node">
<title>IndexGenerateOptions</title>
<path fill="white" stroke="black" stroke-dasharray="5,2" d="M28.23,-214.5C28.23,-214.5 203.77,-214.5 203.77,-214.5 209.77,-214.5 215.77,-220.5 215.77,-226.5 215.77,-226.5 215.77,-254.5 215.77,-254.5 215.77,-260.5 209.77,-266.5 203.77,-266.5 203.77,-266.5 28.23,-266.5 28.23,-266.5 22.23,-266.5 16.23,-260.5 16.23,-254.5 16.23,-254.5 16.23,-226.5 16.23,-226.5 16.23,-220.5 22.23,-214.5 28.23,-214.5"/>
<text xml:space="preserve" text-anchor="middle" x="115.54" y="-253.5" font-family="Helvetica,sans-Serif" font-size="10.00">&lt;&lt;interface&gt;&gt;</text>
<text xml:space="preserve" text-anchor="middle" x="115.54" y="-241.5" font-family="Helvetica,sans-Serif" font-size="10.00">IndexGenerateOptions</text>
<polyline fill="none" stroke="black" stroke-dasharray="5,2" points="16.23,-234.5 215.77,-234.5"/>
<text xml:space="preserve" text-anchor="start" x="24.23" y="-221.5" font-family="Helvetica,sans-Serif" font-size="10.00">+ renderer: DiagramRenderer | undefined</text>
</g>
<!-- MarkdownBuilder -->
<g id="node3" class="node">
<title>MarkdownBuilder</title>
<path fill="white" stroke="black" d="M81.37,-16.5C81.37,-16.5 150.63,-16.5 150.63,-16.5 156.63,-16.5 162.63,-22.5 162.63,-28.5 162.63,-28.5 162.63,-152.5 162.63,-152.5 162.63,-158.5 156.63,-164.5 150.63,-164.5 150.63,-164.5 81.37,-164.5 81.37,-164.5 75.37,-164.5 69.37,-158.5 69.37,-152.5 69.37,-152.5 69.37,-28.5 69.37,-28.5 69.37,-22.5 75.37,-16.5 81.37,-16.5"/>
<text xml:space="preserve" text-anchor="middle" x="116" y="-151.5" font-family="Helvetica,sans-Serif" font-size="10.00">MarkdownBuilder</text>
<polyline fill="none" stroke="black" points="69.37,-144.5 162.63,-144.5"/>
<text xml:space="preserve" text-anchor="start" x="77.37" y="-131.5" font-family="Helvetica,sans-Serif" font-size="10.00">+ frontmatter()</text>
<text xml:space="preserve" text-anchor="start" x="77.37" y="-119.5" font-family="Helvetica,sans-Serif" font-size="10.00">+ heading()</text>
<text xml:space="preserve" text-anchor="start" x="77.37" y="-107.5" font-family="Helvetica,sans-Serif" font-size="10.00">+ paragraph()</text>
<text xml:space="preserve" text-anchor="start" x="77.37" y="-95.5" font-family="Helvetica,sans-Serif" font-size="10.00">+ blockquote()</text>
<text xml:space="preserve" text-anchor="start" x="77.37" y="-83.5" font-family="Helvetica,sans-Serif" font-size="10.00">+ table()</text>
<text xml:space="preserve" text-anchor="start" x="77.37" y="-71.5" font-family="Helvetica,sans-Serif" font-size="10.00">+ codeBlock()</text>
<text xml:space="preserve" text-anchor="start" x="77.37" y="-59.5" font-family="Helvetica,sans-Serif" font-size="10.00">+ list()</text>
<text xml:space="preserve" text-anchor="start" x="77.37" y="-47.5" font-family="Helvetica,sans-Serif" font-size="10.00">+ raw()</text>
<text xml:space="preserve" text-anchor="start" x="77.37" y="-35.5" font-family="Helvetica,sans-Serif" font-size="10.00">+ rawBlock()</text>
<text xml:space="preserve" text-anchor="start" x="77.37" y="-23.5" font-family="Helvetica,sans-Serif" font-size="10.00">+ build()</text>
</g>
<!-- IndexGenerateOptions&#45;&gt;MarkdownBuilder -->
<!-- GenerateOptions -->
<g id="node2" class="node">
<title>GenerateOptions</title>
<path fill="white" stroke="black" stroke-dasharray="5,2" d="M257.19,-208.5C257.19,-208.5 398.81,-208.5 398.81,-208.5 404.81,-208.5 410.81,-214.5 410.81,-220.5 410.81,-220.5 410.81,-260.5 410.81,-260.5 410.81,-266.5 404.81,-272.5 398.81,-272.5 398.81,-272.5 257.19,-272.5 257.19,-272.5 251.19,-272.5 245.19,-266.5 245.19,-260.5 245.19,-260.5 245.19,-220.5 245.19,-220.5 245.19,-214.5 251.19,-208.5 257.19,-208.5"/>
<text xml:space="preserve" text-anchor="middle" x="327.77" y="-259.5" font-family="Helvetica,sans-Serif" font-size="10.00">&lt;&lt;interface&gt;&gt;</text>
<text xml:space="preserve" text-anchor="middle" x="327.77" y="-247.5" font-family="Helvetica,sans-Serif" font-size="10.00">GenerateOptions</text>
<polyline fill="none" stroke="black" stroke-dasharray="5,2" points="245.19,-240.5 410.81,-240.5"/>
<text xml:space="preserve" text-anchor="start" x="253.19" y="-227.5" font-family="Helvetica,sans-Serif" font-size="10.00">+ renderer: DiagramRenderer</text>
<text xml:space="preserve" text-anchor="start" x="253.19" y="-215.5" font-family="Helvetica,sans-Serif" font-size="10.00">+ layerNames: string[] | undefined</text>
</g>
</g>
</svg>
