<?xml version="1.0" encoding="UTF-8" standalone="no"?>
<!DOCTYPE svg PUBLIC "-//W3C//DTD SVG 1.1//EN"
 "http://www.w3.org/Graphics/SVG/1.1/DTD/svg11.dtd">
<!-- Generated by graphviz version 14.1.3 (20260303.0454)
 -->
<!-- Pages: 1 -->
<svg width="322pt" height="267pt"
 viewBox="0.00 0.00 322.00 267.00" xmlns="http://www.w3.org/2000/svg" xmlns:xlink="http://www.w3.org/1999/xlink">
<g id="graph0" class="graph" transform="scale(1 1) rotate(0) translate(4 262.8)">
<polygon fill="white" stroke="none" points="-4,4 -4,-262.8 318,-262.8 318,4 -4,4"/>
<g id="clust1" class="cluster">
<title>cluster_Other</title>
<path fill="#e8eaf6" stroke="#9fa8da" d="M20,-8C20,-8 294,-8 294,-8 300,-8 306,-14 306,-20 306,-20 306,-238.8 306,-238.8 306,-244.8 300,-250.8 294,-250.8 294,-250.8 20,-250.8 20,-250.8 14,-250.8 8,-244.8 8,-238.8 8,-238.8 8,-20 8,-20 8,-14 14,-8 20,-8"/>
<text xml:space="preserve" text-anchor="middle" x="157" y="-235.1" font-family="Helvetica Bold" font-size="13.00">Other</text>
</g>
<!-- MermaidRenderer -->
<g id="node1" class="node">
<title>MermaidRenderer</title>
<path fill="white" stroke="black" d="M110.32,-219.2C110.32,-219.2 29.68,-219.2 29.68,-219.2 23.68,-219.2 17.68,-213.2 17.68,-207.2 17.68,-207.2 17.68,-195.2 17.68,-195.2 17.68,-189.2 23.68,-183.2 29.68,-183.2 29.68,-183.2 110.32,-183.2 110.32,-183.2 116.32,-183.2 122.32,-189.2 122.32,-195.2 122.32,-195.2 122.32,-207.2 122.32,-207.2 122.32,-213.2 116.32,-219.2 110.32,-219.2"/>
<text xml:space="preserve" text-anchor="middle" x="70" y="-204.5" font-family="Helvetica,sans-Serif" font-size="11.00">MermaidRenderer</text>
<text xml:space="preserve" text-anchor="middle" x="70" y="-191.3" font-family="Helvetica,sans-Serif" font-size="11.00">(6 members)</text>
</g>
<!-- DependencyGraph -->
<g id="node3" class="node">
<title>DependencyGraph</title>
<path fill="white" stroke="black" stroke-dasharray="5,2" d="M112.17,-147.2C112.17,-147.2 27.83,-147.2 27.83,-147.2 21.83,-147.2 15.83,-141.2 15.83,-135.2 15.83,-135.2 15.83,-111.6 15.83,-111.6 15.83,-105.6 21.83,-99.6 27.83,-99.6 27.83,-99.6 112.17,-99.6 112.17,-99.6 118.17,-99.6 124.17,-105.6 124.17,-111.6 124.17,-111.6 124.17,-135.2 124.17,-135.2 124.17,-141.2 118.17,-147.2 112.17,-147.2"/>
<text xml:space="preserve" text-anchor="middle" x="70" y="-133.3" font-family="Helvetica,sans-Serif" font-size="11.00">≪interface≫</text>
<text xml:space="preserve" text-anchor="middle" x="70" y="-120.1" font-family="Helvetica,sans-Serif" font-size="11.00">DependencyGraph</text>
<text xml:space="preserve" text-anchor="middle" x="70" y="-106.9" font-family="Helvetica,sans-Serif" font-size="11.00">(2 members)</text>
</g>
<!-- MermaidRenderer&#45;&gt;DependencyGraph -->
<!-- DiagramRenderer -->
<g id="node5" class="node">
<title>DiagramRenderer</title>
<path fill="white" stroke="black" stroke-dasharray="5,2" d="M186.71,-63.6C186.71,-63.6 107.29,-63.6 107.29,-63.6 101.29,-63.6 95.29,-57.6 95.29,-51.6 95.29,-51.6 95.29,-28 95.29,-28 95.29,-22 101.29,-16 107.29,-16 107.29,-16 186.71,-16 186.71,-16 192.71,-16 198.71,-22 198.71,-28 198.71,-28 198.71,-51.6 198.71,-51.6 198.71,-57.6 192.71,-63.6 186.71,-63.6"/>
<text xml:space="preserve" text-anchor="middle" x="147" y="-49.7" font-family="Helvetica,sans-Serif" font-size="11.00">≪interface≫</text>
<text xml:space="preserve" text-anchor="middle" x="147" y="-36.5" font-family="Helvetica,sans-Serif" font-size="11.00">DiagramRenderer</text>
<text xml:space="preserve" text-anchor="middle" x="147" y="-23.3" font-family="Helvetica,sans-Serif" font-size="11.00">(6 members)</text>
</g>
<!-- MermaidRenderer&#45;&gt;DiagramRenderer -->
<g id="edge3" class="edge">
<title>MermaidRenderer&#45;&gt;DiagramRenderer</title>
<path fill="none" stroke="black" stroke-dasharray="5,2" d="M100.47,-182.82C113.29,-173.87 127.05,-161.77 135,-147.2 146.95,-125.31 149.67,-97.14 149.55,-75.29"/>
<polygon fill="none" stroke="black" points="153.05,-75.29 149.28,-65.39 146.06,-75.48 153.05,-75.29"/>
</g>
<!-- SvgRenderer -->
<g id="node2" class="node">
<title>SvgRenderer</title>
<path fill="white" stroke="black" d="M213.41,-219.2C213.41,-219.2 156.59,-219.2 156.59,-219.2 150.59,-219.2 144.59,-213.2 144.59,-207.2 144.59,-207.2 144.59,-195.2 144.59,-195.2 144.59,-189.2 150.59,-183.2 156.59,-183.2 156.59,-183.2 213.41,-183.2 213.41,-183.2 219.41,-183.2 225.41,-189.2 225.41,-195.2 225.41,-195.2 225.41,-207.2 225.41,-207.2 225.41,-213.2 219.41,-219.2 213.41,-219.2"/>
<text xml:space="preserve" text-anchor="middle" x="185" y="-204.5" font-family="Helvetica,sans-Serif" font-size="11.00">SvgRenderer</text>
<text xml:space="preserve" text-anchor="middle" x="185" y="-191.3" font-family="Helvetica,sans-Serif" font-size="11.00">(6 members)</text>
</g>
<!-- SvgRenderer&#45;&gt;DiagramRenderer -->
<g id="edge4" class="edge">
<title>SvgRenderer&#45;&gt;DiagramRenderer</title>
<path fill="none" stroke="black" stroke-dasharray="5,2" d="M180.86,-182.84C174.72,-157.07 163.07,-108.19 155.17,-75.05"/>
<polygon fill="none" stroke="black" points="158.62,-74.44 152.89,-65.52 151.81,-76.06 158.62,-74.44"/>
</g>
<!-- DependencyGraph&#45;&gt;DiagramRenderer -->
<!-- DependencyEdge -->
<g id="node4" class="node">
<title>DependencyEdge</title>
<path fill="white" stroke="black" stroke-dasharray="5,2" d="M285.73,-147.2C285.73,-147.2 206.27,-147.2 206.27,-147.2 200.27,-147.2 194.27,-141.2 194.27,-135.2 194.27,-135.2 194.27,-111.6 194.27,-111.6 194.27,-105.6 200.27,-99.6 206.27,-99.6 206.27,-99.6 285.73,-99.6 285.73,-99.6 291.73,-99.6 297.73,-105.6 297.73,-111.6 297.73,-111.6 297.73,-135.2 297.73,-135.2 297.73,-141.2 291.73,-147.2 285.73,-147.2"/>
<text xml:space="preserve" text-anchor="middle" x="246" y="-133.3" font-family="Helvetica,sans-Serif" font-size="11.00">≪interface≫</text>
<text xml:space="preserve" text-anchor="middle" x="246" y="-120.1" font-family="Helvetica,sans-Serif" font-size="11.00">DependencyEdge</text>
<text xml:space="preserve" text-anchor="middle" x="246" y="-106.9" font-family="Helvetica,sans-Serif" font-size="11.00">(4 members)</text>
</g>
</g>
</svg>
