<?xml version="1.0" encoding="UTF-8" standalone="no"?>
<!DOCTYPE svg PUBLIC "-//W3C//DTD SVG 1.1//EN"
 "http://www.w3.org/Graphics/SVG/1.1/DTD/svg11.dtd">
<!-- Generated by graphviz version 14.1.3 (20260303.0454)
 -->
<!-- Pages: 1 -->
<svg width="1348pt" height="525pt"
 viewBox="0.00 0.00 1348.00 525.00" xmlns="http://www.w3.org/2000/svg" xmlns:xlink="http://www.w3.org/1999/xlink">
<g id="graph0" class="graph" transform="scale(1 1) rotate(0) translate(4 521)">
<polygon fill="white" stroke="none" points="-4,4 -4,-521 1344,-521 1344,4 -4,4"/>
<g id="clust1" class="cluster">
<title>cluster_detail</title>
<path fill="#e8eaf6" stroke="#9fa8da" d="M20,-8C20,-8 1320,-8 1320,-8 1326,-8 1332,-14 1332,-20 1332,-20 1332,-497 1332,-497 1332,-503 1326,-509 1320,-509 1320,-509 20,-509 20,-509 14,-509 8,-503 8,-497 8,-497 8,-20 8,-20 8,-14 14,-8 20,-8"/>
</g>
<!-- CytoscapeNode -->
<g id="node1" class="node">
<title>CytoscapeNode</title>
<path fill="white" stroke="black" stroke-dasharray="5,2" d="M27.54,-448.5C27.54,-448.5 648.46,-448.5 648.46,-448.5 654.46,-448.5 660.46,-454.5 660.46,-460.5 660.46,-460.5 660.46,-488.5 660.46,-488.5 660.46,-494.5 654.46,-500.5 648.46,-500.5 648.46,-500.5 27.54,-500.5 27.54,-500.5 21.54,-500.5 15.54,-494.5 15.54,-488.5 15.54,-488.5 15.54,-460.5 15.54,-460.5 15.54,-454.5 21.54,-448.5 27.54,-448.5"/>
<text xml:space="preserve" text-anchor="middle" x="337.62" y="-487.5" font-family="Helvetica,sans-Serif" font-size="10.00">&lt;&lt;interface&gt;&gt;</text>
<text xml:space="preserve" text-anchor="middle" x="337.62" y="-475.5" font-family="Helvetica,sans-Serif" font-size="10.00">CytoscapeNode</text>
<polyline fill="none" stroke="black" stroke-dasharray="5,2" points="15.54,-468.5 660.46,-468.5"/>
<text xml:space="preserve" text-anchor="start" x="23.54" y="-455.5" font-family="Helvetica,sans-Serif" font-size="10.00">+ data: { id: string; label: string; parent?: string; kind: string; category: string; layer: string; filePath: string; description: string; dddRole?: string; }</text>
</g>
<!-- CytoscapeElements -->
<g id="node3" class="node">
<title>CytoscapeElements</title>
<path fill="white" stroke="black" stroke-dasharray="5,2" d="M282.94,-340.5C282.94,-340.5 393.06,-340.5 393.06,-340.5 399.06,-340.5 405.06,-346.5 405.06,-352.5 405.06,-352.5 405.06,-392.5 405.06,-392.5 405.06,-398.5 399.06,-404.5 393.06,-404.5 393.06,-404.5 282.94,-404.5 282.94,-404.5 276.94,-404.5 270.94,-398.5 270.94,-392.5 270.94,-392.5 270.94,-352.5 270.94,-352.5 270.94,-346.5 276.94,-340.5 282.94,-340.5"/>
<text xml:space="preserve" text-anchor="middle" x="337.9" y="-391.5" font-family="Helvetica,sans-Serif" font-size="10.00">&lt;&lt;interface&gt;&gt;</text>
<text xml:space="preserve" text-anchor="middle" x="337.9" y="-379.5" font-family="Helvetica,sans-Serif" font-size="10.00">CytoscapeElements</text>
<polyline fill="none" stroke="black" stroke-dasharray="5,2" points="270.94,-372.5 405.06,-372.5"/>
<text xml:space="preserve" text-anchor="start" x="278.94" y="-359.5" font-family="Helvetica,sans-Serif" font-size="10.00">+ nodes: CytoscapeNode[]</text>
<text xml:space="preserve" text-anchor="start" x="278.94" y="-347.5" font-family="Helvetica,sans-Serif" font-size="10.00">+ edges: CytoscapeEdge[]</text>
</g>
<!-- CytoscapeNode&#45;&gt;CytoscapeElements -->
<!-- CytoscapeEdge -->
<g id="node2" class="node">
<title>CytoscapeEdge</title>
<path fill="white" stroke="black" stroke-dasharray="5,2" d="M701.82,-448.5C701.82,-448.5 1312.18,-448.5 1312.18,-448.5 1318.18,-448.5 1324.18,-454.5 1324.18,-460.5 1324.18,-460.5 1324.18,-488.5 1324.18,-488.5 1324.18,-494.5 1318.18,-500.5 1312.18,-500.5 1312.18,-500.5 701.82,-500.5 701.82,-500.5 695.82,-500.5 689.82,-494.5 689.82,-488.5 689.82,-488.5 689.82,-460.5 689.82,-460.5 689.82,-454.5 695.82,-448.5 701.82,-448.5"/>
<text xml:space="preserve" text-anchor="middle" x="1006.62" y="-487.5" font-family="Helvetica,sans-Serif" font-size="10.00">&lt;&lt;interface&gt;&gt;</text>
<text xml:space="preserve" text-anchor="middle" x="1006.62" y="-475.5" font-family="Helvetica,sans-Serif" font-size="10.00">CytoscapeEdge</text>
<polyline fill="none" stroke="black" stroke-dasharray="5,2" points="689.82,-468.5 1324.18,-468.5"/>
<text xml:space="preserve" text-anchor="start" x="697.82" y="-455.5" font-family="Helvetica,sans-Serif" font-size="10.00">+ data: { id: string; source: string; target: string; type: string; isForbidden: boolean; count?: number; sourceFile?: string; importPath?: string; }</text>
</g>
<!-- DependencyEdge -->
<g id="node5" class="node">
<title>DependencyEdge</title>
<path fill="white" stroke="black" stroke-dasharray="5,2" d="M290.99,-190.5C290.99,-190.5 385.01,-190.5 385.01,-190.5 391.01,-190.5 397.01,-196.5 397.01,-202.5 397.01,-202.5 397.01,-266.5 397.01,-266.5 397.01,-272.5 391.01,-278.5 385.01,-278.5 385.01,-278.5 290.99,-278.5 290.99,-278.5 284.99,-278.5 278.99,-272.5 278.99,-266.5 278.99,-266.5 278.99,-202.5 278.99,-202.5 278.99,-196.5 284.99,-190.5 290.99,-190.5"/>
<text xml:space="preserve" text-anchor="middle" x="337.75" y="-265.5" font-family="Helvetica,sans-Serif" font-size="10.00">&lt;&lt;interface&gt;&gt;</text>
<text xml:space="preserve" text-anchor="middle" x="337.75" y="-253.5" font-family="Helvetica,sans-Serif" font-size="10.00">DependencyEdge</text>
<polyline fill="none" stroke="black" stroke-dasharray="5,2" points="278.99,-246.5 397.01,-246.5"/>
<text xml:space="preserve" text-anchor="start" x="286.99" y="-233.5" font-family="Helvetica,sans-Serif" font-size="10.00">+ source: string</text>
<text xml:space="preserve" text-anchor="start" x="286.99" y="-221.5" font-family="Helvetica,sans-Serif" font-size="10.00">+ target: string</text>
<text xml:space="preserve" text-anchor="start" x="286.99" y="-209.5" font-family="Helvetica,sans-Serif" font-size="10.00">+ count: number</text>
<text xml:space="preserve" text-anchor="start" x="286.99" y="-197.5" font-family="Helvetica,sans-Serif" font-size="10.00">+ isForbidden: boolean</text>
</g>
<!-- CytoscapeElements&#45;&gt;DependencyEdge -->
<!-- DependencyGraph -->
<g id="node4" class="node">
<title>DependencyGraph</title>
<path fill="white" stroke="black" stroke-dasharray="5,2" d="M819.76,-340.5C819.76,-340.5 938.24,-340.5 938.24,-340.5 944.24,-340.5 950.24,-346.5 950.24,-352.5 950.24,-352.5 950.24,-392.5 950.24,-392.5 950.24,-398.5 944.24,-404.5 938.24,-404.5 938.24,-404.5 819.76,-404.5 819.76,-404.5 813.76,-404.5 807.76,-398.5 807.76,-392.5 807.76,-392.5 807.76,-352.5 807.76,-352.5 807.76,-346.5 813.76,-340.5 819.76,-340.5"/>
<text xml:space="preserve" text-anchor="middle" x="878.73" y="-391.5" font-family="Helvetica,sans-Serif" font-size="10.00">&lt;&lt;interface&gt;&gt;</text>
<text xml:space="preserve" text-anchor="middle" x="878.73" y="-379.5" font-family="Helvetica,sans-Serif" font-size="10.00">DependencyGraph</text>
<polyline fill="none" stroke="black" stroke-dasharray="5,2" points="807.76,-372.5 950.24,-372.5"/>
<text xml:space="preserve" text-anchor="start" x="815.76" y="-359.5" font-family="Helvetica,sans-Serif" font-size="10.00">+ nodes: string[]</text>
<text xml:space="preserve" text-anchor="start" x="815.76" y="-347.5" font-family="Helvetica,sans-Serif" font-size="10.00">+ edges: DependencyEdge[]</text>
</g>
<!-- MermaidRenderer -->
<g id="node7" class="node">
<title>MermaidRenderer</title>
<path fill="white" stroke="black" d="M265.15,-16.5C265.15,-16.5 410.85,-16.5 410.85,-16.5 416.85,-16.5 422.85,-22.5 422.85,-28.5 422.85,-28.5 422.85,-116.5 422.85,-116.5 422.85,-122.5 416.85,-128.5 410.85,-128.5 410.85,-128.5 265.15,-128.5 265.15,-128.5 259.15,-128.5 253.15,-122.5 253.15,-116.5 253.15,-116.5 253.15,-28.5 253.15,-28.5 253.15,-22.5 259.15,-16.5 265.15,-16.5"/>
<text xml:space="preserve" text-anchor="middle" x="338" y="-115.5" font-family="Helvetica,sans-Serif" font-size="10.00">MermaidRenderer</text>
<polyline fill="none" stroke="black" points="253.15,-108.5 422.85,-108.5"/>
<text xml:space="preserve" text-anchor="start" x="261.15" y="-95.5" font-family="Helvetica,sans-Serif" font-size="10.00">+ renderLayerOverview()</text>
<text xml:space="preserve" text-anchor="start" x="261.15" y="-83.5" font-family="Helvetica,sans-Serif" font-size="10.00">+ renderDetailClassDiagram()</text>
<text xml:space="preserve" text-anchor="start" x="261.15" y="-71.5" font-family="Helvetica,sans-Serif" font-size="10.00">+ renderSequenceDiagram()</text>
<text xml:space="preserve" text-anchor="start" x="261.15" y="-59.5" font-family="Helvetica,sans-Serif" font-size="10.00">+ renderRouteSequenceDiagram()</text>
<text xml:space="preserve" text-anchor="start" x="261.15" y="-47.5" font-family="Helvetica,sans-Serif" font-size="10.00">+ renderProjectOverview()</text>
<text xml:space="preserve" text-anchor="start" x="261.15" y="-35.5" font-family="Helvetica,sans-Serif" font-size="10.00">+ renderLayerDependency()</text>
<text xml:space="preserve" text-anchor="start" x="261.15" y="-23.5" font-family="Helvetica,sans-Serif" font-size="10.00">+ renderInteractiveOverview()</text>
</g>
<!-- DependencyEdge&#45;&gt;MermaidRenderer -->
<!-- DiagramRenderer -->
<g id="node6" class="node">
<title>DiagramRenderer</title>
<path fill="white" stroke="black" stroke-dasharray="5,2" d="M451.15,-172.5C451.15,-172.5 596.85,-172.5 596.85,-172.5 602.85,-172.5 608.85,-178.5 608.85,-184.5 608.85,-184.5 608.85,-284.5 608.85,-284.5 608.85,-290.5 602.85,-296.5 596.85,-296.5 596.85,-296.5 451.15,-296.5 451.15,-296.5 445.15,-296.5 439.15,-290.5 439.15,-284.5 439.15,-284.5 439.15,-184.5 439.15,-184.5 439.15,-178.5 445.15,-172.5 451.15,-172.5"/>
<text xml:space="preserve" text-anchor="middle" x="523.89" y="-283.5" font-family="Helvetica,sans-Serif" font-size="10.00">&lt;&lt;interface&gt;&gt;</text>
<text xml:space="preserve" text-anchor="middle" x="523.89" y="-271.5" font-family="Helvetica,sans-Serif" font-size="10.00">DiagramRenderer</text>
<polyline fill="none" stroke="black" stroke-dasharray="5,2" points="439.15,-264.5 608.85,-264.5"/>
<text xml:space="preserve" text-anchor="start" x="447.15" y="-251.5" font-family="Helvetica,sans-Serif" font-size="10.00">+ renderLayerOverview()</text>
<text xml:space="preserve" text-anchor="start" x="447.15" y="-239.5" font-family="Helvetica,sans-Serif" font-size="10.00">+ renderDetailClassDiagram()</text>
<text xml:space="preserve" text-anchor="start" x="447.15" y="-227.5" font-family="Helvetica,sans-Serif" font-size="10.00">+ renderSequenceDiagram()</text>
<text xml:space="preserve" text-anchor="start" x="447.15" y="-215.5" font-family="Helvetica,sans-Serif" font-size="10.00">+ renderRouteSequenceDiagram()</text>
<text xml:space="preserve" text-anchor="start" x="447.15" y="-203.5" font-family="Helvetica,sans-Serif" font-size="10.00">+ renderProjectOverview()</text>
<text xml:space="preserve" text-anchor="start" x="447.15" y="-191.5" font-family="Helvetica,sans-Serif" font-size="10.00">+ renderLayerDependency()</text>
<text xml:space="preserve" text-anchor="start" x="447.15" y="-179.5" font-family="Helvetica,sans-Serif" font-size="10.00">+ renderInteractiveOverview()</text>
</g>
<!-- MermaidRenderer&#45;&gt;DiagramRenderer -->
<g id="edge4" class="edge">
<title>MermaidRenderer&#45;&gt;DiagramRenderer</title>
<path fill="none" stroke="black" stroke-dasharray="5,2" d="M402.49,-128.98C415.89,-140.5 430.16,-152.78 444.04,-164.72"/>
<polygon fill="none" stroke="black" points="441.61,-167.24 451.47,-171.11 446.17,-161.94 441.61,-167.24"/>
</g>
<!-- SvgRenderer -->
<g id="node8" class="node">
<title>SvgRenderer</title>
<path fill="white" stroke="black" d="M464.15,-16.5C464.15,-16.5 609.85,-16.5 609.85,-16.5 615.85,-16.5 621.85,-22.5 621.85,-28.5 621.85,-28.5 621.85,-116.5 621.85,-116.5 621.85,-122.5 615.85,-128.5 609.85,-128.5 609.85,-128.5 464.15,-128.5 464.15,-128.5 458.15,-128.5 452.15,-122.5 452.15,-116.5 452.15,-116.5 452.15,-28.5 452.15,-28.5 452.15,-22.5 458.15,-16.5 464.15,-16.5"/>
<text xml:space="preserve" text-anchor="middle" x="537" y="-115.5" font-family="Helvetica,sans-Serif" font-size="10.00">SvgRenderer</text>
<polyline fill="none" stroke="black" points="452.15,-108.5 621.85,-108.5"/>
<text xml:space="preserve" text-anchor="start" x="460.15" y="-95.5" font-family="Helvetica,sans-Serif" font-size="10.00">+ renderLayerOverview()</text>
<text xml:space="preserve" text-anchor="start" x="460.15" y="-83.5" font-family="Helvetica,sans-Serif" font-size="10.00">+ renderDetailClassDiagram()</text>
<text xml:space="preserve" text-anchor="start" x="460.15" y="-71.5" font-family="Helvetica,sans-Serif" font-size="10.00">+ renderSequenceDiagram()</text>
<text xml:space="preserve" text-anchor="start" x="460.15" y="-59.5" font-family="Helvetica,sans-Serif" font-size="10.00">+ renderRouteSequenceDiagram()</text>
<text xml:space="preserve" text-anchor="start" x="460.15" y="-47.5" font-family="Helvetica,sans-Serif" font-size="10.00">+ renderProjectOverview()</text>
<text xml:space="preserve" text-anchor="start" x="460.15" y="-35.5" font-family="Helvetica,sans-Serif" font-size="10.00">+ renderLayerDependency()</text>
<text xml:space="preserve" text-anchor="start" x="460.15" y="-23.5" font-family="Helvetica,sans-Serif" font-size="10.00">+ renderInteractiveOverview()</text>
</g>
<!-- SvgRenderer&#45;&gt;DiagramRenderer -->
<g id="edge5" class="edge">
<title>SvgRenderer&#45;&gt;DiagramRenderer</title>
<path fill="none" stroke="black" stroke-dasharray="5,2" d="M532.49,-128.98C531.66,-139.2 530.78,-150.01 529.92,-160.65"/>
<polygon fill="none" stroke="black" points="526.43,-160.34 529.11,-170.59 533.41,-160.91 526.43,-160.34"/>
</g>
</g>
</svg>
